<svg version="1.1" xmlns="http://www.w3.org/2000/svg" xmlns:xlink="http://www.w3.org/1999/xlink" width="48" height="48"><defs><linearGradient x1="11.67152" y1="11.67152" x2="63.09651" y2="63.09651" gradientUnits="userSpaceOnUse" id="color-1"><stop offset="0" stop-color="#000000" stop-opacity="0.3"></stop><stop offset="1" stop-color="#000000" stop-opacity="0"></stop></linearGradient><filter id="dropshadow-base"><feColorMatrix type="matrix" values="0 0 0 0 0  0 0 0 0 0  0 0 0 0 0  0 0 0 .8 0"></feColorMatrix> <feOffset dx="0" dy="1"></feOffset> <feGaussianBlur stdDeviation="1"></feGaussianBlur> <feComposite in="SourceGraphic"></feComposite></filter><filter id="dropshadow-banner" x="-10%" y="-10%" width="120%" height="130%"><feColorMatrix type="matrix" values="0 0 0 0 0  0 0 0 0 0  0 0 0 0 0  0 0 0 .4 0"></feColorMatrix> <feOffset dx="0" dy="1"></feOffset> <feGaussianBlur stdDeviation="0.5"></feGaussianBlur> <feComposite in="SourceGraphic"></feComposite></filter></defs><g fill="none" fill-rule="nonzero" stroke="none" stroke-width="none" stroke-linecap="butt" stroke-linejoin="miter" stroke-miterlimit="10" stroke-dasharray="" stroke-dashoffset="0" font-family="none" font-weight="none" font-size="none" text-anchor="none" style="mix-blend-mode: normal"><path d="M2,24c0,-12.15026 9.84974,-22 22,-22c12.15026,0 22,9.84974 22,22c0,12.15026 -9.84974,22 -22,22c-12.15026,0 -22,-9.84974 -22,-22z" id="base 1 5" fill="#3f51b5" stroke-width="1"></path><path d="M22.08672,36.00022c-0.20282,-0.20282 -0.32826,-0.48301 -0.32826,-0.79251l-10.08694,-10.08694l2.24154,0l-2.24154,-2.24154h3.36231l2.35489,2.35489c-0.07441,-0.40012 -0.11333,-0.81262 -0.11333,-1.23412c0,-1.44777 0.45752,-2.78869 1.23586,-3.88605l-4.0378,-4.0378l1.5915,-1.6027l4.04245,4.04245c1.09857,-0.78118 2.44194,-1.24053 3.8926,-1.24053c0.00001,0 0.00001,0 0.00002,0l0.00001,0c0.4214,0 0.83374,0.03876 1.23366,0.11292l-2.35446,-2.35446v-3.36231h2.24154l4.80721,4.80721l1.99587,-2.00528l13.6839,13.6839c-1.50282,7.85779 -7.18563,14.23149 -14.64562,16.71827z" fill="url(#color-1)" stroke-width="1"></path><path d="M32.96617,22.87923h3.36231v2.24154h-3.36231v-2.24154zM11.67152,22.87923h3.36231v2.24154h-3.36231v-2.24154zM25.12077,11.67152v3.36231h-2.24154v-3.36231h2.24154zM16.06494,14.47345l2.38724,2.39845l-1.59149,1.58029l-2.38724,-2.37603l1.59149,-1.6027zM29.54782,16.86069l2.37603,-2.38724l1.6027,1.6027l-2.38724,2.37603l-1.59149,-1.59149zM24,17.27537c3.71391,0 6.72463,3.01072 6.72463,6.72463c0,2.48811 -1.35613,4.66241 -3.36231,5.82801v2.01739c0,0.61898 -0.50179,1.12077 -1.12077,1.12077h-4.48308c-0.61898,0 -1.12077,-0.50179 -1.12077,-1.12077v-2.01739c-2.00618,-1.1656 -3.36231,-3.3399 -3.36231,-5.82801c0,-3.71391 3.01072,-6.72463 6.72463,-6.72463zM26.24154,34.08694v1.12077c0,0.61898 -0.50179,1.12077 -1.12077,1.12077h-2.24154c-0.61898,0 -1.12077,-0.50179 -1.12077,-1.12077v-1.12077h4.48308zM22.87923,30.72463h2.24154v-2.38724c1.93893,-0.49314 3.36231,-2.25275 3.36231,-4.33738c0,-2.47594 -2.00715,-4.48308 -4.48308,-4.48308c-2.47594,0 -4.48308,2.00715 -4.48308,4.48308c0,2.08463 1.42338,3.84424 3.36231,4.33738z" fill="none" stroke-width="0"></path><path d="M36.32848,22.87923v2.24154h-3.36231v-2.24154zM15.03383,22.87923v2.24154h-3.36231v-2.24154zM25.12077,15.03383h-2.24154v-3.36231h2.24154zM18.45218,16.8719l-1.59149,1.58029l-2.38724,-2.37603l1.59149,-1.6027zM31.92385,14.47345l1.6027,1.6027l-2.38724,2.37603l-1.59149,-1.59149zM30.72463,24c0,2.48811 -1.35613,4.66241 -3.36231,5.82801v2.01739c0,0.61898 -0.50179,1.12077 -1.12077,1.12077h-4.48308c-0.61898,0 -1.12077,-0.50179 -1.12077,-1.12077v-2.01739c-2.00618,-1.1656 -3.36231,-3.3399 -3.36231,-5.82801c0,-3.71391 3.01072,-6.72463 6.72463,-6.72463c3.71391,0 6.72463,3.01072 6.72463,6.72463zM26.24154,35.20771c0,0.61898 -0.50179,1.12077 -1.12077,1.12077h-2.24154c-0.61898,0 -1.12077,-0.50179 -1.12077,-1.12077v-1.12077h4.48308zM22.87923,30.72463h2.24154v-2.38724c1.93893,-0.49314 3.36231,-2.25275 3.36231,-4.33738c0,-2.47594 -2.00715,-4.48308 -4.48308,-4.48308c-2.47594,0 -4.48308,2.00715 -4.48308,4.48308c0,2.08463 1.42338,3.84424 3.36231,4.33738z" fill="#ffffff" stroke-width="0"></path><path d="M2,24c0,-12.15026 9.84974,-22 22,-22c12.15026,0 22,9.84974 22,22c0,12.15026 -9.84974,22 -22,22c-12.15026,0 -22,-9.84974 -22,-22z" id="base 1 1 1" fill="none" stroke-width="1"></path><g fill="#000000" stroke-width="1" font-family="Roboto, sans-serif" font-weight="normal" font-size="14" text-anchor="start"></g><rect x="2" y="2" width="44" height="22" fill="none" stroke-width="1"></rect><path d="M2,24v-22h44v22z" fill="none" stroke-width="1"></path><path d="M2,24v-22h44v22z" fill="none" stroke-width="1"></path><path d="M2,24v-22h44v22z" fill="none" stroke-width="1"></path><path d="M2,24v-22h44v22z" fill="none" stroke-width="1"></path></g></svg>